<?xml version="1.0" encoding="utf-8"?>
<!-- Generator: Adobe Illustrator 21.0.0, SVG Export Plug-In . SVG Version: 6.00 Build 0)  -->
<svg version="1.1" id="Layer_1" xmlns="http://www.w3.org/2000/svg" xmlns:xlink="http://www.w3.org/1999/xlink" x="0px" y="0px"
	 width="164px" height="31px" viewBox="0 0 164 31" style="enable-background:new 0 0 164 31;" xml:space="preserve">
<style type="text/css">
	.st0{fill:#FFFFFF;}
</style>
<path class="st0" d="M54.6,0.8h7.5c2.9,0,5.1,0.6,6.6,1.7c1.6,1.1,2.4,3.1,2.4,6c0,1.7-0.4,3.1-1.1,4.1s-1.8,1.6-3.2,1.9
	c1.7,0.2,3,1,3.9,2.2s1.3,2.9,1.3,5c0,5.8-2.9,8.6-8.6,8.6h-8.8L54.6,0.8L54.6,0.8z M62.1,12.6c1.5,0,2.4-0.3,3-1
	c0.5-0.7,0.8-1.7,0.8-3.1c0-1.3-0.3-2.2-1-2.8s-1.7-0.9-3.2-0.9h-1.1v7.8H62.1z M62.2,26c1.5,0,2.5-0.4,3.1-1.1
	c0.6-0.7,0.9-1.9,0.9-3.5c0-1.7-0.3-2.9-0.9-3.7c-0.6-0.7-1.7-1.1-3.1-1.1h-1.6V26H62.2z M79.7,0.8h6.6L92,30.2h-5.5l-1.1-6.5h-4.6
	l-1.1,6.5H74L79.7,0.8z M84.8,20L83,8.2L81.3,20H84.8z M95,0.8h6v12.4l5.3-12.4h5.8L106.5,14l6,16.2h-6.1L101.9,17l-1,1.6v11.5h-6
	L95,0.8L95,0.8z M115.1,0.8h4.1v26.5h7.5v2.9h-11.6V0.8z M130.6,28c-1.2-1.6-1.9-4-1.9-7.1V9.8c0-3.1,0.6-5.4,1.9-6.9
	c1.3-1.6,3.3-2.4,6.2-2.4s4.9,0.8,6.2,2.4s1.9,3.9,1.9,6.9V21c0,3.1-0.6,5.4-1.9,7s-3.3,2.5-6.1,2.5C133.9,30.5,131.9,29.7,130.6,28
	z M139.9,25.9c0.5-0.9,0.8-2.3,0.8-4.1V9c0-1.8-0.3-3.1-0.8-4s-1.6-1.3-3.1-1.3c-1.6,0-2.6,0.4-3.1,1.3s-0.8,2.2-0.8,4v12.9
	c0,1.8,0.3,3.2,0.8,4.1s1.6,1.3,3.1,1.3C138.3,27.3,139.4,26.8,139.9,25.9z M148.9,0.8h2.8l8.4,19.5V0.8h3.4v29.4h-2.6l-8.5-20.1
	v20.1h-3.5L148.9,0.8L148.9,0.8z"/>
<g>
	<rect x="12.6" y="0.5" class="st0" width="36" height="6"/>
	<rect x="30.6" y="12.5" class="st0" width="18" height="6"/>
	<rect x="30.6" y="24.5" class="st0" width="18" height="6"/>
	<polygon class="st0" points="6.6,12.5 6.6,0.5 0.6,0.5 0.6,12.5 0.6,18.5 0.6,30.5 6.6,30.5 6.6,18.5 18.6,18.5 18.6,24.5 
		12.6,24.5 12.6,30.5 24.6,30.5 24.6,12.5 	"/>
</g>
</svg>
